<?xml version="1.0" encoding="UTF-8" standalone="no"?>
<svg
   width="16"
   height="16"
   version="1.1"
   id="svg75"
   sodipodi:docname="RichTextButton.svg"
   inkscape:version="1.2.2 (b0a8486541, 2022-12-01)"
   xmlns:inkscape="http://www.inkscape.org/namespaces/inkscape"
   xmlns:sodipodi="http://sodipodi.sourceforge.net/DTD/sodipodi-0.dtd"
   xmlns="http://www.w3.org/2000/svg"
   xmlns:svg="http://www.w3.org/2000/svg">
  <defs
     id="defs79" />
  <sodipodi:namedview
     id="namedview77"
     pagecolor="#505050"
     bordercolor="#eeeeee"
     borderopacity="1"
     inkscape:showpageshadow="0"
     inkscape:pageopacity="0"
     inkscape:pagecheckerboard="0"
     inkscape:deskcolor="#505050"
     showgrid="false"
     inkscape:zoom="25.1875"
     inkscape:cx="9.1712159"
     inkscape:cy="7.5831265"
     inkscape:window-width="1920"
     inkscape:window-height="1008"
     inkscape:window-x="1680"
     inkscape:window-y="0"
     inkscape:window-maximized="1"
     inkscape:current-layer="svg75" />
  <path
     fill="#76ad7b"
     d="m 5.5,10.078672 c -0.831,0 -1.5,0.669 -1.5,1.5 v 1.5 H 2 v 2 h 12 v -2 h -2 v -1.5 c 0,-0.831 -0.669,-1.5 -1.5,-1.5 z"
     id="path73" />
  <path
     fill="#8eef97"
     d="m 1.5173366,1.338865 0.0034,3.1388935 9.1545334,0.00388 -0.006,-3.1427741 z m 11.4258814,0 -1.702624,1.7067889 h 1.140847 l -0.0064,4.5514368 h -1.129372 l 1.700661,1.7067884 1.71183,-1.7067884 h -1.136276 l -0.0063,-4.5514368 h 1.135087 z m -11.4193119,4.7751739 -0.0052,3.1435589 3.4399898,8.083e-4 V 6.1579705 Z m 4.5726504,-0.00373 0,3.1384533 4.5760635,7.291e-4 -5.79e-4,-3.1350073 z"
     id="path131"
     style="stroke-width:0.56893"
     sodipodi:nodetypes="cccccccccccccccccccccccccc" />
</svg>
